<svg xmlns="http://www.w3.org/2000/svg" width="372" height="600" viewBox="0 0 372 600"><rect width="100%" height="100%" fill="#DDDDDD"/><path fill="#999999" d="m78.1 292.575-3.25-.58q.37-2.6 1.45-4.56 1.07-1.96 2.69-3.27 1.61-1.32 3.7-1.98 2.08-.66 4.48-.66 2.5 0 4.52.71 2.01.71 3.43 1.98 1.43 1.26 2.19 2.96t.76 3.67q0 1.73-.38 3.04-.39 1.31-1.12 2.29-.72.97-1.8 1.65-1.07.67-2.42 1.12 3.25 1.03 4.85 3.13t1.6 5.27q0 2.7-1 4.78-1 2.07-2.7 3.49-1.7 1.41-3.94 2.13-2.24.73-4.74.73-2.72 0-4.75-.63-2.02-.62-3.52-1.85-1.5-1.22-2.55-3-1.05-1.77-1.8-4.1l2.72-1.12q1.08-.45 2.02-.24.93.21 1.36 1.01.45.88.99 1.73.53.85 1.28 1.51t1.77 1.08q1.01.41 2.41.41 1.57 0 2.75-.51 1.17-.52 1.96-1.34.79-.83 1.18-1.84.38-1.01.38-2.04 0-1.3-.27-2.36-.28-1.06-1.15-1.81-.88-.75-2.51-1.18-1.64-.42-4.39-.42v-4.4q2.27-.03 3.77-.43t2.39-1.11 1.24-1.71.35-2.2q0-2.55-1.43-3.88-1.42-1.32-3.8-1.32-1.1 0-2.02.31-.93.31-1.66.88-.74.56-1.24 1.31t-.75 1.65q-.43 1.15-1.11 1.52-.69.38-1.94.18m25.37-10.65h24.98v2.67q0 1.21-.25 1.94-.25.74-.5 1.24l-13.7 28.2q-.43.87-1.2 1.49-.78.61-2.08.61h-4.47l13.97-27.63q.48-.85.94-1.56t1.04-1.36h-17.3q-.58 0-1-.43-.43-.42-.43-1zm41.93 30.4h9.27q1 0 1.59.56t.59 1.49v3.7h-24.8v-2.05q0-.63.26-1.31.26-.69.84-1.24l10.97-11q1.38-1.4 2.47-2.68 1.08-1.27 1.81-2.52.72-1.25 1.11-2.54t.39-2.71q0-1.3-.38-2.29-.37-.99-1.06-1.66-.69-.68-1.65-1.01-.96-.34-2.16-.34-1.1 0-2.04.31t-1.66.88q-.73.56-1.23 1.31t-.75 1.65q-.42 1.15-1.1 1.52-.67.38-1.95.18l-3.25-.58q.38-2.6 1.45-4.56 1.08-1.96 2.69-3.27 1.61-1.32 3.7-1.98t4.49-.66q2.5 0 4.57.74 2.08.73 3.55 2.08 1.48 1.35 2.3 3.25.83 1.9.83 4.23 0 2-.59 3.7t-1.57 3.25q-.99 1.55-2.32 3-1.32 1.45-2.77 2.95l-8.15 8.32q1.17-.35 2.34-.53 1.16-.19 2.21-.19m52.2-2.53-3.28 3.23-8.47-8.48-8.55 8.53-3.28-3.22 8.55-8.58-8.15-8.15 3.25-3.25 8.15 8.15 8.1-8.1 3.3 3.25-8.12 8.12zm38.62-27.87-10.72 13.12-1.25 1.55q1.05-.52 2.26-.81t2.61-.29q2.06 0 3.99.68 1.94.67 3.41 2.04 1.48 1.36 2.38 3.38.9 2.03.9 4.73 0 2.53-.93 4.74-.92 2.21-2.6 3.86-1.67 1.65-4.03 2.6-2.37.95-5.22.95-2.9 0-5.2-.93-2.3-.92-3.92-2.58-1.63-1.67-2.49-4-.86-2.34-.86-5.19 0-2.55 1.04-5.24 1.03-2.69 3.21-5.59l8.63-11.57q.44-.6 1.31-1.03.86-.42 1.98-.42zm-9.32 31.5q1.47 0 2.71-.5t2.13-1.4q.88-.9 1.38-2.11.5-1.22.5-2.64 0-1.55-.47-2.79t-1.35-2.1q-.87-.86-2.1-1.31t-2.7-.45q-1.48 0-2.68.5t-2.05 1.39q-.85.88-1.32 2.1-.48 1.21-.48 2.61 0 1.5.42 2.74.41 1.23 1.22 2.11.82.87 2.01 1.36 1.2.49 2.78.49m42.3-13.42q0 4.72-1.01 8.21-1.01 3.48-2.8 5.76-1.79 2.27-4.23 3.39-2.44 1.11-5.26 1.11-2.83 0-5.24-1.11-2.41-1.12-4.19-3.39-1.77-2.28-2.77-5.76-1-3.49-1-8.21 0-4.76 1-8.23 1-3.48 2.77-5.75 1.78-2.28 4.19-3.39t5.24-1.11q2.82 0 5.26 1.11t4.23 3.39q1.79 2.27 2.8 5.75 1.01 3.47 1.01 8.23m-6.38 0q0-3.93-.57-6.51-.57-2.57-1.54-4.1-.96-1.52-2.21-2.13-1.25-.62-2.6-.62-1.33 0-2.56.62-1.24.61-2.19 2.13-.95 1.53-1.51 4.1-.57 2.58-.57 6.51 0 3.92.57 6.49.56 2.58 1.51 4.1.95 1.53 2.19 2.14 1.23.61 2.56.61 1.35 0 2.6-.61t2.21-2.14q.97-1.52 1.54-4.1.57-2.57.57-6.49m35.38 0q0 4.72-1.01 8.21-1.01 3.48-2.8 5.76-1.79 2.27-4.23 3.39-2.44 1.11-5.26 1.11-2.83 0-5.24-1.11-2.41-1.12-4.19-3.39-1.77-2.28-2.77-5.76-1-3.49-1-8.21 0-4.76 1-8.23 1-3.48 2.77-5.75 1.78-2.28 4.19-3.39t5.24-1.11q2.82 0 5.26 1.11t4.23 3.39q1.79 2.27 2.8 5.75 1.01 3.47 1.01 8.23m-6.38 0q0-3.93-.57-6.51-.57-2.57-1.54-4.1-.96-1.52-2.21-2.13-1.25-.62-2.6-.62-1.33 0-2.56.62-1.24.61-2.19 2.13-.95 1.53-1.51 4.1-.57 2.58-.57 6.51 0 3.92.57 6.49.56 2.58 1.51 4.1.95 1.53 2.19 2.14 1.23.61 2.56.61 1.35 0 2.6-.61t2.21-2.14q.97-1.52 1.54-4.1.57-2.57.57-6.49"/></svg>